<svg width="999.9999999999999" height="999.9999999999999" xmlns="http://www.w3.org/2000/svg">
 <metadata>Svg Vector Icons : http://www.onlinewebfonts.com/icon</metadata>

 <g>
  <title>background</title>
  <rect fill="none" id="canvas_background" height="602" width="802" y="-1" x="-1"/>
 </g>
 <g>
  <title>Layer 1</title>
  <g fill="white" id="svg_1">
   <g id="svg_2" transform="translate(0,511) scale(0.10000000149011612,-0.10000000149011612) ">
    <path id="svg_3" d="m845.4,4670.4c-416.6,-55.1 -657.6,-290 -725,-704.6c-12.3,-83.7 -20.4,-1421.4 -20.4,-3866c0,-3998.7 -2,-3874.2 100.1,-4102.9c55.1,-126.6 210.4,-287.9 337,-349.2c239,-116.4 63.3,-112.3 4137.6,-112.3c4074.3,0 3898.7,-4.1 4137.6,112.3c126.6,61.3 281.8,222.6 337,349.2c100.1,222.6 100.1,208.3 100.1,2734.6l0,2369l-326.8,-326.8l-326.8,-326.7l0,-2079l0,-2079l-51.1,-49l-49,-51.1l-3821,0l-3821.1,0l-49,51.1l-51.1,49l0,3821l0,3821.1l51.1,49l49,51.1l2732.5,0l2732.5,0l326.8,326.8l326.8,326.8l-3032.8,-2c-1668.5,-2.2 -3059.3,-8.3 -3094,-12.4z"/>
    <path id="svg_4" d="m8757.2,4656.1c-136.8,-38.8 -328.8,-147 -412.5,-232.8l-75.6,-75.6l655.6,-653.5l653.5,-653.5l81.7,91.9c230.8,261.4 302.3,631.1 183.8,943.5c-167.5,437 -657.7,698.4 -1086.5,580z"/>
    <path id="svg_5" d="m5646.8,1903.1l-2283.3,-2126l653.5,-653.5l653.5,-653.5l2291.5,2130.1l2291.4,2130.1l-649.4,649.4c-357.4,359.4 -655.6,651.5 -661.7,649.4c-6.1,0 -1037.5,-957.8 -2295.5,-2126z"/>
    <path id="svg_6" d="m3030.6,-566c-38.8,-104.2 -641.3,-1925.9 -637.2,-1929.9c6.1,-4.1 1934,639.2 1944.2,649.4c6.1,4.1 -283.9,300.2 -643.3,659.6c-439,439.2 -655.5,641.4 -663.7,620.9z"/>
   </g>
  </g>
 </g>
</svg>